<?xml version="1.0" encoding="iso-8859-1"?>
<!-- Generator: Adobe Illustrator 19.0.0, SVG Export Plug-In . SVG Version: 6.00 Build 0)  -->
<svg version="1.1" id="Layer_1" xmlns="http://www.w3.org/2000/svg" xmlns:xlink="http://www.w3.org/1999/xlink" x="0px" y="0px"
	 viewBox="0 0 511.999 511.999" style="enable-background:new 0 0 511.999 511.999;" xml:space="preserve">
<g>
	<path style="fill:#5A2479;" d="M288.868,303.721c-11.118-104.402,12.753-145.705,36.927-164.038
		c25.019-18.974,51.271-14.027,97.285-39.766c35.788-20.018,59.742-45.29,74.03-62.846c-2.588,25.351-11.305,69.64-44.022,107.03
		c-22.952,26.231-52.298,42.878-63.499,49.126c-24.312,13.563-31.576,12.592-46.045,21.73
		C324.418,227.038,301.821,251.03,288.868,303.721z"/>
	<path style="fill:#5A2479;" d="M224.457,303.721c11.118-104.402-12.753-145.705-36.927-164.038
		c-25.019-18.974-51.271-14.027-97.285-39.766c-35.788-20.018-59.742-45.29-74.03-62.846c2.589,25.351,11.305,69.64,44.022,107.03
		c22.952,26.231,52.298,42.878,63.499,49.126c24.312,13.563,31.576,12.592,46.045,21.73
		C188.907,227.038,211.504,251.03,224.457,303.721z"/>
</g>
<circle style="fill:#956EC4;" cx="257.381" cy="294.497" r="180.43"/>
<path style="fill:#6D2C92;" d="M257.378,114.068c-37.708,0-72.708,11.574-101.657,31.353c20.48-8.073,42.794-12.509,66.143-12.509
	c99.648,0,180.43,80.781,180.43,180.43c0,61.94-31.217,116.585-78.772,149.076c66.926-26.384,114.286-91.621,114.286-167.92
	C437.807,194.849,357.026,114.068,257.378,114.068z"/>
<path style="fill:#B77FD8;" d="M291.624,452.096c-99.648,0-180.43-80.781-180.43-180.43c0-55.289,24.877-104.76,64.04-137.858
	c-58.35,29.888-98.286,90.625-98.286,160.688c0,99.648,80.781,180.43,180.43,180.43c44.359,0,84.97-16.018,116.39-42.571
	C349.13,444.975,321.209,452.096,291.624,452.096z"/>
<path style="fill:#FFD92D;" d="M287.315,324.481c0,17.256-13.989,96.043-31.246,96.043s-31.246-78.787-31.246-96.043
	c0-17.256,13.989-31.246,31.246-31.246S287.315,307.226,287.315,324.481z"/>
<path style="fill:#6D2C92;" d="M287.735,325.735c-13.148-64.991,0.179-100.668,15.69-121.43
	c38.863-52.016,112.472-38.555,162.973-102.968c17.851-22.766,25.964-46.526,30.029-63.011c4.768,15.01,14.626,53.317-1.007,95.38
	c-12.99,34.959-37.148,55.187-48.195,64.207c-44.184,36.085-74.521,24.495-112.909,56.454
	C319.473,266.726,300.654,287.903,287.735,325.735z"/>
<path style="fill:#F8F8F8;" d="M334.316,254.368c-12.773,10.636-28.49,27.815-40.859,56.51
	c13.887,14.744,33.586,23.952,55.439,23.952c42.055,0,76.147-34.092,76.147-76.147c0-14.682-4.16-28.392-11.358-40.02
	C385.876,230.913,362.222,231.135,334.316,254.368z"/>
<path style="fill:#FF4F18;" d="M334.316,254.368c-8.758,7.293-18.903,17.661-28.403,32.708
	c9.613,12.871,24.964,21.208,42.264,21.208c29.117,0,52.721-23.604,52.721-52.721c0-10.72-3.206-20.688-8.703-29.011
	C372.977,232.664,354.792,237.322,334.316,254.368z"/>
<path style="fill:#FFA81E;" d="M334.316,254.368c-5.511,4.588-11.57,10.396-17.671,17.817c6.47,6.924,15.682,11.255,25.907,11.255
	c19.577,0,35.447-15.87,35.447-35.447c0-5.638-1.335-10.958-3.677-15.69C361.349,236.804,348.372,242.666,334.316,254.368z"/>
<path style="fill:#6D2C92;" d="M224.265,325.735c13.148-64.991-0.179-100.668-15.69-121.43
	C169.712,152.288,96.103,165.75,45.602,101.337C27.752,78.57,19.638,54.811,15.573,38.326c-4.768,15.01-14.625,53.316,1.007,95.38
	c12.99,34.959,37.148,55.187,48.195,64.207c44.184,36.085,74.521,24.495,112.909,56.454
	C192.526,266.726,211.346,287.903,224.265,325.735z"/>
<path style="fill:#F8F8F8;" d="M177.685,254.368c-27.591-22.97-51.023-23.444-78.426-35.291
	c-7.317,11.695-11.548,25.518-11.548,40.33c0,42.055,34.092,76.147,76.147,76.147c21.695,0,41.266-9.077,55.136-23.635
	C206.556,282.592,190.612,265.132,177.685,254.368z"/>
<path style="fill:#FF4F18;" d="M177.685,254.368c-20.115-16.747-38.02-21.536-56.864-27.493c-5.66,8.403-8.965,18.521-8.965,29.414
	c0,29.117,23.604,52.721,52.721,52.721c17.204,0,32.473-8.246,42.096-20.995C197.004,272.462,186.624,261.811,177.685,254.368z"/>
<path style="fill:#FFA81E;" d="M177.685,254.368c-13.716-11.42-26.406-17.278-39.065-21.739c-2.465,4.829-3.864,10.294-3.864,16.088
	c0,19.577,15.87,35.447,35.447,35.447c10.178,0,19.352-4.292,25.817-11.162C189.694,265.19,183.395,259.123,177.685,254.368z"/>
<g>
	<path style="fill:#1C2042;" d="M409.845,393.716c-3.653-2.628-8.752-1.796-11.38,1.862c-1.542,2.144-3.143,4.27-4.761,6.319
		c-2.79,3.534-2.187,8.662,1.347,11.452c1.496,1.181,3.278,1.754,5.048,1.754c2.409,0,4.796-1.063,6.406-3.102
		c1.768-2.24,3.518-4.563,5.202-6.907C414.336,401.439,413.502,396.343,409.845,393.716z"/>
	<path style="fill:#1C2042;" d="M504.199,32.779c-1.107-3.48-4.393-5.821-8.041-5.682c-3.252,0.107-6.076,2.136-7.274,5.085
		c-0.04,0.049-0.085,0.091-0.124,0.141c-23.31,29.502-49.925,50.839-79.104,63.419c-24.679,10.641-67.183,22.155-73.636,23.879
		c-24.847-11.399-52.051-17.444-79.818-17.444c-27.132,0-53.752,5.772-78.151,16.683c-0.746-0.507-1.584-0.906-2.506-1.148
		c-0.476-0.125-47.847-12.62-74.47-24.1C71.894,81.031,45.28,59.694,21.97,30.193c-0.074-0.092-0.154-0.175-0.232-0.264
		c-0.058-0.067-0.114-0.134-0.174-0.199c-0.262-0.285-0.537-0.549-0.83-0.789c-0.035-0.028-0.071-0.053-0.105-0.08
		c-0.296-0.235-0.603-0.446-0.923-0.634c-0.037-0.022-0.072-0.046-0.109-0.067c-0.339-0.192-0.69-0.356-1.049-0.496
		c-0.07-0.027-0.139-0.053-0.21-0.078c-0.365-0.132-0.737-0.242-1.115-0.321c-0.047-0.01-0.096-0.014-0.142-0.024
		c-0.383-0.072-0.769-0.117-1.158-0.134c-0.028-0.001-0.054-0.009-0.082-0.01c-0.011,0-0.022,0.002-0.032,0.001
		c-0.409-0.012-0.819,0.013-1.226,0.062c-0.047,0.005-0.095,0.011-0.141,0.017c-0.413,0.058-0.823,0.146-1.226,0.267l0,0
		c-0.808,0.245-1.586,0.621-2.309,1.127c-0.017,0.012-0.034,0.024-0.051,0.036c-0.112,0.079-0.226,0.153-0.336,0.239
		c-0.565,0.447-1.046,0.957-1.459,1.507c-0.023,0.03-0.047,0.06-0.07,0.09c-0.241,0.332-0.457,0.676-0.644,1.035
		c-0.023,0.045-0.043,0.09-0.066,0.136c-0.187,0.376-0.352,0.762-0.478,1.159l-0.001,0.001C1.556,52.438-6.601,91.66,8.937,133.468
		c14.027,37.751,40.656,59.497,50.68,67.683c7.499,6.125,14.679,10.964,21.565,14.899c-10.846,24.426-16.346,50.465-16.346,77.494
		c0,105.519,85.846,191.365,191.366,191.365c32.925,0,65.399-8.503,93.909-24.589c3.921-2.214,5.308-7.186,3.095-11.109
		c-2.214-3.921-7.186-5.308-11.109-3.095c-26.07,14.71-55.772,22.485-85.895,22.485c-94.535,0-171.796-75.326-174.946-169.108
		c14.003,27.195,42.346,45.85,74.982,45.85c22.061,0,43.26-8.801,58.893-24.016c0.479,1.313,0.959,2.628,1.417,3.967
		c0.117,0.346,0.27,0.671,0.428,0.99c0.801,11.613,4.312,33.164,9.237,52.199c8.529,32.962,17.778,47.662,29.988,47.662
		c12.21,0,21.459-14.7,29.988-47.662c5.09-19.669,8.668-42.02,9.309-53.322c0.367-1.075,0.755-2.127,1.137-3.184
		c15.565,14.817,36.475,23.366,58.221,23.366c33.743,0,62.904-19.936,76.363-48.641c-0.41,23.468-5.379,46.168-14.809,67.513
		c-1.82,4.119,0.045,8.935,4.164,10.754c1.071,0.474,2.19,0.698,3.29,0.698c3.13,0,6.117-1.813,7.462-4.862
		c10.776-24.392,16.24-50.387,16.24-77.261c0-27.119-5.537-53.208-16.438-77.673c6.791-3.902,13.867-8.686,21.253-14.717
		c10.025-8.187,36.653-29.932,50.68-67.684C518.601,91.66,510.443,52.438,504.199,32.779z M416.115,110.716
		c20.312-8.757,39.407-21.36,57.091-37.6c-3.893,7.12-8.304,13.836-13.225,20.112c-23.635,30.147-52.795,42.344-81.408,53.192
		c-6.905-5.747-14.171-10.974-21.745-15.654C373.537,125.957,398.644,118.25,416.115,110.716z M360.808,153.176
		c-24.352,9.519-46.896,20.39-63.915,43.169c-17.123,22.919-24.538,53.377-22.194,90.827c-5.52-2.947-11.816-4.625-18.498-4.625
		c-6.851,0-13.298,1.761-18.917,4.85c2.387-37.554-5.021-68.086-22.178-91.052c-16.958-22.698-39.404-33.572-63.657-43.069
		c30.129-22.51,66.897-34.792,104.753-34.792C294.02,118.485,330.702,130.729,360.808,153.176z M94.617,108.587
		c18.75,8.085,46.296,16.369,62.813,21.056c-8.288,4.993-16.22,10.631-23.72,16.884c-28.703-10.874-57.978-23.053-81.691-53.299
		c-5.351-6.824-10.091-14.173-14.225-21.992C55.402,87.356,74.408,99.873,94.617,108.587z M24.224,127.787
		c-8.338-22.436-8.983-44.132-6.951-61.695c5.789,13.532,13.115,25.977,21.912,37.196c27.882,35.566,62.843,48.734,93.687,60.353
		c27.961,10.533,52.11,19.629,69.17,42.464c15.729,21.053,21.909,50.166,18.472,86.772c-9.9-19.23-22.49-35.261-37.613-47.854
		c-19.91-16.575-38.05-22.249-55.593-27.736c-17.648-5.519-35.899-11.226-57.375-28.768
		C59.991,180.402,36.709,161.389,24.224,127.787z M140.896,239.426c0.064-0.087,0.116-0.178,0.176-0.266
		c10.254,4.005,20.514,9.338,31.395,18.396c3.302,2.75,6.459,5.706,9.493,8.833c-0.736,0.5-1.405,1.122-1.965,1.878
		c-4.638,6.252-11.755,9.838-19.526,9.838c-13.394,0-24.291-10.896-24.291-24.291C136.179,248.59,137.81,243.615,140.896,239.426z
		 M156.24,329.033c-37.491,0-67.993-30.502-67.993-67.993c0-13.043,3.644-25.53,10.563-36.402c8.32,3.425,16.18,5.884,23.631,8.214
		c0.919,0.287,1.834,0.574,2.747,0.861c-3.489,6.099-5.317,12.963-5.317,20.1c0,22.386,18.213,40.599,40.599,40.599
		c12.484,0,24.382-5.857,32.043-15.694c5.907,7.839,11.159,16.554,15.733,26.121C195.288,320.266,176.566,329.033,156.24,329.033z
		 M256.202,409.349c-2.07-2.018-8.1-9.998-15.105-38.544c-5.211-21.236-7.986-42.02-7.986-48.858
		c0-12.732,10.359-23.091,23.091-23.091c9.91,0,18.356,6.286,21.626,15.071c0.444,2.646,0.939,5.328,1.466,8.032
		c-0.003,6.85-2.778,27.622-7.988,48.848C264.303,399.352,258.272,407.332,256.202,409.349z M354.857,329.033
		c-20.024,0-38.478-8.521-51.411-23.521c4.277-9.047,9.162-17.331,14.623-24.848c7.663,8.656,18.789,13.747,30.426,13.747
		c22.386,0,40.599-18.213,40.599-40.599c0-6.821-1.674-13.389-4.866-19.28c1.769-0.564,3.544-1.122,5.332-1.681
		c7.237-2.264,14.861-4.651,22.916-7.923c6.799,10.803,10.375,23.185,10.375,36.112C422.85,298.531,392.348,329.033,354.857,329.033
		z M368.543,240.123c2.768,4.04,4.244,8.75,4.244,13.69c0,13.394-10.896,24.291-24.291,24.291c-7.771,0-14.888-3.586-19.526-9.838
		c-0.108-0.145-0.225-0.276-0.339-0.412c3.457-3.681,7.087-7.122,10.902-10.299C349.569,249.199,359.079,244.021,368.543,240.123z
		 M487.777,127.787c-12.485,33.601-35.767,52.614-45.71,60.732c-21.477,17.541-39.727,23.248-57.375,28.767
		c-17.543,5.487-35.684,11.161-55.593,27.736c-15.124,12.594-27.712,28.621-37.613,47.855c-3.437-36.607,2.743-65.718,18.473-86.772
		c17.06-22.836,41.208-31.933,69.169-42.466c30.845-11.619,65.804-24.788,93.687-60.352c8.798-11.22,16.123-23.665,21.912-37.197
		C496.759,83.656,496.114,105.352,487.777,127.787z"/>
</g>
<g>
	<path style="fill:#FFFFFF;" d="M215.755,441.115c-1.588,0.553-3.362,0.623-5.091,0.086c-27.367-8.488-44.043-20.71-60.663-36.452
		c-3.269-3.097-3.409-8.257-0.313-11.527c3.098-3.269,8.257-3.409,11.527-0.312c15.392,14.579,29.841,25.137,54.279,32.716
		c4.302,1.335,6.707,5.902,5.373,10.203C220.069,438.399,218.115,440.293,215.755,441.115z"/>
	<path style="fill:#FFFFFF;" d="M141.192,385.793c-3.345,1.165-7.191,0.041-9.338-2.996l-0.504-0.711
		c-0.439-0.618-0.439-0.618-0.847-1.252l-0.472-0.733c-2.445-3.781-1.363-8.829,2.418-11.275c3.78-2.449,8.83-1.362,11.275,2.419
		l0.5,0.776c0.199,0.31,0.199,0.31,0.412,0.61l0.534,0.752c2.599,3.677,1.726,8.766-1.95,11.365
		C142.579,385.201,141.897,385.548,141.192,385.793z"/>
</g>
<g>
</g>
<g>
</g>
<g>
</g>
<g>
</g>
<g>
</g>
<g>
</g>
<g>
</g>
<g>
</g>
<g>
</g>
<g>
</g>
<g>
</g>
<g>
</g>
<g>
</g>
<g>
</g>
<g>
</g>
</svg>
